<svg width="24" height="24" viewBox="0 0 24 24" fill="none" xmlns="http://www.w3.org/2000/svg">
<path d="M20 7.423V20H4V4H16.577L20 7.423ZM11.996 16.538C12.55 16.538 13.0223 16.344 13.413 15.956C13.8037 15.568 13.9993 15.097 14 14.543C14.0007 13.989 13.8067 13.5163 13.418 13.125C13.0293 12.7337 12.5583 12.5383 12.005 12.539C11.4517 12.5397 10.9787 12.7333 10.586 13.12C10.1933 13.5067 9.998 13.9783 10 14.535C10.002 15.0917 10.196 15.5643 10.582 15.953C10.968 16.3417 11.4393 16.5373 11.996 16.54M6.769 9.77H14.192V6.77H6.77L6.769 9.77Z" fill="white"/>
</svg>
